<svg width="124" height="124" viewBox="0 0 124 124" fill="none" xmlns="http://www.w3.org/2000/svg">
<path fill-rule="evenodd" clip-rule="evenodd" d="M52.6328 58.7036C55.4243 57.4635 57.8238 55.484 59.5717 52.9789C61.2158 50.2558 62.0259 47.1106 61.9018 43.9321C62.01 41.0264 61.4736 38.1327 60.3312 35.4588C59.3955 33.1822 57.8599 31.2019 55.8878 29.7289C53.8212 28.2306 51.4703 27.2128 49.0007 26.7529C46.0838 26.105 43.1018 25.7964 40.114 25.8333H9.3C8.88891 25.8333 8.49467 25.9966 8.20398 26.2873C7.9133 26.5779 7.75 26.9722 7.75 27.3833V96.3118C7.75 96.7229 7.9133 97.1171 8.20398 97.4078C8.49467 97.6985 8.88891 97.8618 9.3 97.8618H40.8167C43.834 97.8618 46.841 97.4588 49.755 96.6579C52.5425 95.8937 55.1695 94.6336 57.5102 92.9379C59.8217 91.2357 61.6837 88.996 62.9352 86.4124C64.3489 83.4679 65.0363 80.2275 64.9398 76.9626C65.0472 72.926 63.9714 68.9461 61.845 65.5133C59.6368 62.1436 56.2565 59.7133 52.359 58.6933H52.6328V58.7036ZM23.5083 37.4583C23.2343 37.4583 22.9714 37.5671 22.7777 37.7609C22.5839 37.9547 22.475 38.2176 22.475 38.4916V54.5083C22.475 55.0766 22.94 55.5416 23.5083 55.5416H37.975C40.373 55.5416 42.6728 54.589 44.3684 52.8934C46.0641 51.1977 47.0167 48.8979 47.0167 46.4999C47.0167 44.1019 46.0641 41.8022 44.3684 40.1065C42.6728 38.4109 40.373 37.4583 37.975 37.4583H23.5083ZM22.475 65.6166C22.475 65.0483 22.94 64.5833 23.5083 64.5833H38.6208C41.5327 64.5833 44.3253 65.74 46.3843 67.799C48.4433 69.858 49.6 72.6506 49.6 75.5624C49.6 78.4743 48.4433 81.2669 46.3843 83.3259C44.3253 85.3849 41.5327 86.5416 38.6208 86.5416H23.5083C23.2343 86.5416 22.9714 86.4327 22.7777 86.2389C22.5839 86.0452 22.475 85.7823 22.475 85.5083V65.6166Z" fill="white" fill-opacity="0.4"/>
<path d="M79.7681 29.5017H104.17C104.578 29.5017 104.969 29.6621 105.259 29.9484C105.549 30.2346 105.715 30.6235 105.72 31.031L105.787 36.0014C105.79 36.2067 105.752 36.4104 105.675 36.6009C105.599 36.7913 105.485 36.9646 105.341 37.1108C105.197 37.2569 105.025 37.3729 104.835 37.4521C104.646 37.5313 104.443 37.5721 104.237 37.572H79.7681C79.3571 37.572 78.9628 37.4087 78.6721 37.1181C78.3814 36.8274 78.2181 36.4331 78.2181 36.022V31.0517C78.2181 30.6406 78.3814 30.2464 78.6721 29.9557C78.9628 29.665 79.3571 29.5017 79.7681 29.5017Z" fill="white" fill-opacity="0.4"/>
<path fill-rule="evenodd" clip-rule="evenodd" d="M92.8553 87.1618C95.3701 87.2363 97.8412 86.493 99.8975 85.0434C101.241 84.1496 102.31 82.8734 102.987 81.3648C103.072 81.1682 103.211 81.0002 103.389 80.881C103.567 80.7618 103.775 80.6966 103.99 80.6931H113.915C114.586 80.6931 115.082 81.3234 114.881 81.9641C113.41 86.8163 110.445 91.0801 106.407 94.1471C102.158 96.9128 97.1635 98.3102 92.0958 98.1513C88.4946 98.2158 84.9172 97.5551 81.5765 96.2086C78.5382 94.9252 75.8329 92.9656 73.6663 90.4788C71.523 87.8963 69.9016 84.922 68.8923 81.7213C67.6885 78.1437 67.1032 74.3872 67.1615 70.6129C67.1263 66.8915 67.731 63.1917 68.9492 59.6751C70.066 56.4602 71.8158 53.5018 74.0952 50.9744C76.3376 48.5449 79.0497 46.5956 82.0673 45.2446C85.3129 43.8233 88.8214 43.1015 92.3645 43.1263C96.1382 43.0702 99.8661 43.9582 103.209 45.7096C106.268 47.4021 108.901 49.7699 110.908 52.6329C112.928 55.6193 114.4 58.9776 115.243 62.5374C116.112 66.2894 116.422 70.1493 116.162 73.9919H80.2797C80.1084 77.6509 81.3056 81.2425 83.638 84.0669C84.8883 85.2243 86.3557 86.0974 87.9418 86.6296C89.528 87.1618 91.202 87.3426 92.8553 87.1618ZM80.6 64.0616C80.5993 64.1303 80.6123 64.1985 80.6383 64.2621C80.6643 64.3257 80.7027 64.3835 80.7513 64.4321C80.7999 64.4807 80.8577 64.5191 80.9213 64.5451C80.9849 64.5711 81.0531 64.5841 81.1218 64.5834H102.036C102.175 64.5834 102.308 64.5285 102.405 64.4306C102.503 64.3327 102.558 64.2 102.558 64.0616C102.558 61.2882 101.457 58.6283 99.4955 56.6672C97.5343 54.706 94.8745 53.6043 92.101 53.6043H91.0573C88.2839 53.6043 85.624 54.706 83.6629 56.6672C81.7017 58.6283 80.6 61.2882 80.6 64.0616Z" fill="white" fill-opacity="0.4"/>
</svg>
