<svg width="124" height="124" viewBox="0 0 124 124" fill="none" xmlns="http://www.w3.org/2000/svg">
<path d="M24.5417 9.6875C21.6298 9.6875 18.8372 10.8442 16.7782 12.9032C14.7192 14.9622 13.5625 17.7548 13.5625 20.6667C13.5625 23.5785 14.7192 26.3711 16.7782 28.4301C18.8372 30.4891 21.6298 31.6458 24.5417 31.6458C27.4535 31.6458 30.2461 30.4891 32.3051 28.4301C34.3641 26.3711 35.5208 23.5785 35.5208 20.6667C35.5208 17.7548 34.3641 14.9622 32.3051 12.9032C30.2461 10.8442 27.4535 9.6875 24.5417 9.6875ZM14.2083 40.6875C14.037 40.6875 13.8728 40.7555 13.7517 40.8767C13.6305 40.9978 13.5625 41.1621 13.5625 41.3333V108.5C13.5625 108.857 13.8518 109.146 14.2083 109.146H34.875C35.0463 109.146 35.2106 109.078 35.3317 108.957C35.4528 108.836 35.5208 108.671 35.5208 108.5V41.3333C35.5208 41.1621 35.4528 40.9978 35.3317 40.8767C35.2106 40.7555 35.0463 40.6875 34.875 40.6875H14.2083ZM47.7917 40.6875C47.6204 40.6875 47.4561 40.7555 47.335 40.8767C47.2139 40.9978 47.1458 41.1621 47.1458 41.3333V108.5C47.1458 108.857 47.4352 109.146 47.7917 109.146H68.4583C68.6296 109.146 68.7939 109.078 68.915 108.957C69.0361 108.836 69.1042 108.671 69.1042 108.5V72.3333C69.1042 69.7641 70.1248 67.3 71.9416 65.4832C73.7583 63.6665 76.2224 62.6458 78.7917 62.6458C81.3609 62.6458 83.825 63.6665 85.6418 65.4832C87.4585 67.3 88.4792 69.7641 88.4792 72.3333V108.5C88.4792 108.857 88.7685 109.146 89.125 109.146H109.792C109.963 109.146 110.127 109.078 110.248 108.957C110.369 108.836 110.438 108.671 110.438 108.5V63.9633C110.438 51.4238 99.5358 41.6175 87.0583 42.749C83.1977 43.1004 79.4161 44.0558 75.8518 45.5803L69.1042 48.4737V41.3333C69.1042 41.1621 69.0361 40.9978 68.915 40.8767C68.7939 40.7555 68.6296 40.6875 68.4583 40.6875H47.7917Z" fill="white" fill-opacity="0.4"/>
</svg>
