<svg width="124" height="124" viewBox="0 0 124 124" fill="none" xmlns="http://www.w3.org/2000/svg">
<path d="M86.8233 42.7567C89.905 42.7567 92.4033 40.2584 92.4033 37.1767C92.4033 34.0949 89.905 31.5967 86.8233 31.5967C83.7415 31.5967 81.2433 34.0949 81.2433 37.1767C81.2433 40.2584 83.7415 42.7567 86.8233 42.7567Z" fill="white" fill-opacity="0.4"/>
<path d="M62 38.1223C57.2774 38.1223 52.6609 39.5227 48.7342 42.1464C44.8075 44.7702 41.7471 48.4994 39.9398 52.8624C38.1326 57.2255 37.6597 62.0266 38.581 66.6584C39.5024 71.2902 41.7765 75.5448 45.1159 78.8842C48.4552 82.2235 52.7098 84.4977 57.3417 85.419C61.9735 86.3403 66.7745 85.8675 71.1376 84.0602C75.5007 82.253 79.2299 79.1925 81.8536 75.2658C84.4773 71.3392 85.8777 66.7226 85.8777 62.0001C85.8777 55.6673 83.362 49.5939 78.8841 45.1159C74.4062 40.638 68.3328 38.1223 62 38.1223ZM62 77.5001C58.9344 77.5001 55.9376 76.591 53.3886 74.8878C50.8397 73.1847 48.853 70.7639 47.6799 67.9317C46.5067 65.0994 46.1997 61.9829 46.7978 58.9762C47.3959 55.9695 48.8721 53.2076 51.0398 51.0399C53.2075 48.8722 55.9694 47.396 58.9761 46.7979C61.9828 46.1998 65.0993 46.5068 67.9316 47.6799C70.7638 48.8531 73.1846 50.8398 74.8878 53.3887C76.5909 55.9377 77.5 58.9345 77.5 62.0001C77.5 66.1109 75.867 70.0534 72.9601 72.9602C70.0533 75.867 66.1108 77.5001 62 77.5001Z" fill="white" fill-opacity="0.4"/>
<path d="M62 23.8778C74.4155 23.8778 75.888 23.9242 80.7899 24.149C83.7381 24.184 86.6585 24.7253 89.4234 25.7494C91.4293 26.5232 93.2511 27.7084 94.7713 29.2287C96.2916 30.749 97.4768 32.5707 98.2506 34.5766C99.2747 37.3415 99.816 40.2619 99.851 43.2101C100.076 48.112 100.122 49.5845 100.122 62.0039C100.122 74.4232 100.076 75.888 99.851 80.7899C99.816 83.7381 99.2747 86.6585 98.2506 89.4234C97.4768 91.4293 96.2916 93.2511 94.7713 94.7713C93.2511 96.2916 91.4293 97.4768 89.4234 98.2506C86.6585 99.2747 83.7381 99.816 80.7899 99.851C75.888 100.076 74.4155 100.122 62 100.122C49.5845 100.122 48.112 100.076 43.2101 99.851C40.2619 99.816 37.3415 99.2747 34.5766 98.2506C32.5707 97.4768 30.749 96.2916 29.2287 94.7713C27.7084 93.2511 26.5232 91.4293 25.7494 89.4234C24.7253 86.6585 24.184 83.7381 24.149 80.7899C23.9242 75.888 23.8778 74.4155 23.8778 62C23.8778 49.5845 23.9242 48.112 24.149 43.2101C24.184 40.2619 24.7253 37.3415 25.7494 34.5766C26.5232 32.5707 27.7084 30.749 29.2287 29.2287C30.749 27.7084 32.5707 26.5232 34.5766 25.7494C37.3415 24.7253 40.2619 24.184 43.2101 24.149C48.112 23.9242 49.5845 23.8778 62 23.8778ZM62 15.5C49.3714 15.5 47.7865 15.5543 42.8265 15.779C38.97 15.8569 35.1546 16.588 31.5425 17.9413C28.4531 19.1359 25.6473 20.9629 23.3051 23.3051C20.9629 25.6473 19.1359 28.4531 17.9413 31.5425C16.5876 35.1558 15.8564 38.9726 15.779 42.8304C15.5543 47.7904 15.5 49.3675 15.5 62C15.5 74.6325 15.5543 76.2135 15.779 81.1735C15.8569 85.03 16.588 88.8454 17.9413 92.4575C19.1359 95.547 20.9629 98.3527 23.3051 100.695C25.6473 103.037 28.4531 104.864 31.5425 106.059C35.1558 107.412 38.9726 108.144 42.8304 108.221C47.7904 108.446 49.3714 108.5 62 108.5C74.6286 108.5 76.2135 108.446 81.1735 108.221C85.0313 108.144 88.848 107.412 92.4614 106.059C95.5508 104.864 98.3566 103.037 100.699 100.695C103.041 98.3527 104.868 95.547 106.063 92.4575C107.415 88.8439 108.145 85.0272 108.221 81.1696C108.446 76.2096 108.5 74.6325 108.5 62C108.5 49.3675 108.446 47.7865 108.221 42.8265C108.143 38.97 107.412 35.1546 106.059 31.5425C104.864 28.4531 103.037 25.6473 100.695 23.3051C98.3527 20.9629 95.547 19.1359 92.4575 17.9413C88.8439 16.5889 85.0272 15.8591 81.1696 15.7829C76.2096 15.5504 74.6325 15.5 62 15.5Z" fill="white" fill-opacity="0.4"/>
</svg>
