<svg width="124" height="124" viewBox="0 0 124 124" fill="none" xmlns="http://www.w3.org/2000/svg">
<path d="M112.375 62.339V62C112.37 54.5242 110.703 47.1431 107.495 40.391C104.286 33.6388 99.6164 27.6846 93.8234 22.9593L93.5328 22.7171L93.1937 22.4749C85.7984 16.6311 76.9119 12.9793 67.5444 11.9346C58.1768 10.89 48.7041 12.4944 40.2031 16.5656L39.5734 16.9046C32.7013 20.3327 26.7003 25.281 22.0256 31.3741C17.3509 37.4671 14.1254 44.5448 12.5937 52.0703V52.1671C10.732 61.4748 11.5457 71.1194 14.9405 79.9836C18.3352 88.8478 24.1722 96.5686 31.775 102.252L32.4047 102.736H32.4531C39.0303 107.505 46.6633 110.612 54.7012 111.793C62.739 112.974 70.9432 112.193 78.6141 109.517L79.1469 109.323C88.7974 105.816 97.1486 99.4483 103.086 91.0705C109.023 82.6928 112.263 72.7035 112.375 62.4359V62.339ZM104.431 58.2218L100.75 58.125C93.5698 58.1309 86.4213 59.0753 79.4859 60.9343C77.7863 55.9195 75.596 51.0846 72.9469 46.5C79.8413 42.3463 86.0777 37.1874 91.45 31.1937C98.9222 38.323 103.538 47.9329 104.431 58.2218ZM85.3953 26.3984C80.5567 31.7141 74.958 36.2845 68.7812 39.9609C63.5951 32.692 57.2645 26.3123 50.0359 21.0703C55.9644 19.3478 62.196 18.9321 68.3006 19.852C74.4053 20.7719 80.2377 23.0054 85.3953 26.3984ZM41.4625 24.6546C49.4007 29.6357 56.3207 36.079 61.8547 43.6421C52.1715 48.0728 41.6487 50.369 31 50.375C27.711 50.3678 24.4261 50.1412 21.1672 49.6968C24.4168 39.027 31.6971 30.0438 41.4625 24.6546ZM19.375 62C19.375 60.4015 19.4719 58.8515 19.6172 57.35C23.391 57.8507 27.1931 58.1096 31 58.125C43.1531 58.1422 55.1547 55.4274 66.1172 50.1812C68.5325 54.3488 70.5282 58.7459 72.075 63.3078C67.9655 64.8737 63.982 66.7521 60.1594 68.9265C49.5367 75.0767 40.4322 83.5356 33.5187 93.6781C29.0697 89.6865 25.5109 84.8028 23.0741 79.3449C20.6372 73.887 19.3768 67.9772 19.375 62ZM39.7187 98.3281C48.1135 85.8305 60.1558 76.2237 74.2062 70.8156C75.3868 76.144 75.9877 81.5845 75.9984 87.0421C75.996 92.335 75.4277 97.6124 74.3031 102.784C70.3185 104.015 66.1704 104.636 62 104.625C54.1342 104.622 46.4226 102.443 39.7187 98.3281ZM82.8766 99.1515C83.4594 95.1414 83.7508 91.0944 83.7484 87.0421C83.7444 80.7655 83.0294 74.5094 81.6172 68.3937C87.8588 66.7292 94.2902 65.8825 100.75 65.875L104.431 65.9718C103.784 72.8316 101.485 79.4327 97.7317 85.2108C93.9781 90.9888 88.8811 95.772 82.8766 99.1515Z" fill="white" fill-opacity="0.4"/>
</svg>
