<svg width="66" height="21" viewBox="0 0 66 21" fill="none" xmlns="http://www.w3.org/2000/svg">
<path d="M4.54 8.43V12.6H8.38V13.98H4.54V20.97H0.0100001V0.839998H2.41V8.43H4.54ZM10.09 0.839998C11.89 0.839998 13.43 1.48 14.71 2.76C16.01 4.04 16.66 5.59 16.66 7.41C16.66 9.21 16.01 10.76 14.71 12.06C13.43 13.34 11.89 13.98 10.09 13.98H9.19V11.79H5.35V9.45H10.09C10.37 9.45 10.63 9.4 10.87 9.3C11.13 9.18 11.35 9.03 11.53 8.85C11.71 8.67 11.85 8.46 11.95 8.22C12.07 7.96 12.13 7.69 12.13 7.41C12.13 6.83 11.93 6.34 11.53 5.94C11.13 5.54 10.65 5.34 10.09 5.34H4.54V7.62H3.22V0.839998H10.09ZM20.7238 13.32L20.6038 12.96L18.7438 13.41C18.1238 11.01 18.3538 8.7 19.4338 6.48C20.0138 5.26 20.8138 4.21 21.8338 3.33C22.8738 2.43 23.9938 1.78 25.1938 1.38C26.3938 0.959999 27.6638 0.779999 29.0038 0.839998C30.3638 0.899999 31.6538 1.23 32.8738 1.83C34.0738 2.41 35.1038 3.18 35.9638 4.14C36.8238 5.1 37.4738 6.18 37.9138 7.38L36.6838 7.65C36.3638 6.79 35.9238 6 35.3638 5.28C34.7038 4.44 33.9238 3.74 33.0238 3.18L32.6938 2.97L30.8638 5.88C30.1038 5.52 29.3138 5.34 28.4938 5.34C27.8138 5.34 27.1438 5.46 26.4838 5.7C25.8438 5.94 25.2638 6.3 24.7438 6.78C24.2238 7.26 23.8038 7.82 23.4838 8.46C22.8238 9.84 22.7438 11.25 23.2438 12.69C23.6238 13.77 24.2638 14.65 25.1638 15.33L23.8138 17.49C23.1538 17.03 22.5638 16.47 22.0438 15.81C21.4638 15.07 21.0238 14.24 20.7238 13.32ZM38.1838 8.16C38.8638 10.62 38.6538 12.99 37.5538 15.27C36.9538 16.49 36.1538 17.54 35.1538 18.42C34.1738 19.3 33.0538 19.96 31.7938 20.4C30.7138 20.76 29.6038 20.94 28.4638 20.94C26.9438 20.94 25.4838 20.61 24.0838 19.95C22.8838 19.35 21.8438 18.56 20.9638 17.58C20.0838 16.58 19.4238 15.45 18.9838 14.19L20.0638 13.92C20.3838 14.8 20.8338 15.6 21.4138 16.32C22.0538 17.16 22.8238 17.86 23.7238 18.42L24.0838 18.63L25.8538 15.75C25.8738 15.77 25.9038 15.79 25.9438 15.81C26.0038 15.83 26.0438 15.85 26.0638 15.87C27.4438 16.53 28.8538 16.61 30.2938 16.11C31.7538 15.61 32.8138 14.67 33.4738 13.29C34.1538 11.91 34.2338 10.5 33.7138 9.06C33.3138 7.9 32.6038 6.98 31.5838 6.3L32.9338 4.11C33.6138 4.57 34.2038 5.12 34.7038 5.76C35.2838 6.52 35.7238 7.36 36.0238 8.28L36.1438 8.64L38.1838 8.16ZM44.1916 6.42V6H40.7116C40.8116 4.34 41.4716 2.93 42.6916 1.77C43.9316 0.609998 45.3916 0.0299982 47.0716 0.0299982H58.1716V0.0599996L53.6716 4.56H47.0716C46.5516 4.56 46.1116 4.74 45.7516 5.1C45.3916 5.46 45.2116 5.9 45.2116 6.42C45.2116 6.92 45.3916 7.35 45.7516 7.71C46.1116 8.07 46.5516 8.25 47.0716 8.25H51.9316C53.6116 8.25 55.0616 8.83 56.2816 9.99C57.5216 11.15 58.1916 12.56 58.2916 14.22H57.2716C57.1516 12.84 56.5816 11.68 55.5616 10.74C54.5416 9.78 53.3316 9.3 51.9316 9.3H47.0716C46.2716 9.3 45.5916 9.02 45.0316 8.46C44.4716 7.88 44.1916 7.2 44.1916 6.42ZM56.4616 14.64V15.03H58.2916C58.1916 16.71 57.5216 18.13 56.2816 19.29C55.0616 20.43 53.6116 21 51.9316 21H42.0616V16.47H51.9316C52.4516 16.47 52.8916 16.29 53.2516 15.93C53.6116 15.57 53.7916 15.14 53.7916 14.64C53.7916 14.12 53.6116 13.68 53.2516 13.32C52.8916 12.96 52.4516 12.78 51.9316 12.78H47.0716C45.3916 12.78 43.9316 12.21 42.6916 11.07C41.4716 9.91 40.8116 8.49 40.7116 6.81H43.3816C43.4816 7.75 43.8816 8.54 44.5816 9.18C45.3016 9.8 46.1316 10.11 47.0716 10.11H51.9316C53.1716 10.11 54.2316 10.55 55.1116 11.43C56.0116 12.31 56.4616 13.38 56.4616 14.64ZM61.1505 0.87H65.6805V9.9H64.4505V3.75H61.1505V0.87ZM63.6105 4.56V10.74H65.6805V20.97L61.1505 19.02V4.56H63.6105Z" fill="#FF6B00"/>
</svg>
